<mxfile host="Electron" modified="2023-11-12T22:40:52.234Z" agent="Mozilla/5.0 (Macintosh; Intel Mac OS X 10_15_7) AppleWebKit/537.36 (KHTML, like Gecko) draw.io/21.2.8 Chrome/112.0.5615.165 Electron/24.2.0 Safari/537.36" etag="cjErMkeBHtUF1KRaqvxW" version="21.2.8" type="device">
  <diagram id="7ac91c9_CYBIp-0gwyT7" name="Страница 1">
    <mxGraphModel dx="1158" dy="-3931" grid="1" gridSize="10" guides="1" tooltips="1" connect="1" arrows="1" fold="1" page="1" pageScale="1" pageWidth="827" pageHeight="1169" math="0" shadow="0">
      <root>
        <mxCell id="0" />
        <mxCell id="1" parent="0" />
        <mxCell id="g7hA280cSHpAfKu-B-t--48" value="par" style="shape=umlFrame;whiteSpace=wrap;html=1;" parent="1" vertex="1">
          <mxGeometry x="485" y="5040" width="670" height="220" as="geometry" />
        </mxCell>
        <mxCell id="g7hA280cSHpAfKu-B-t--3" value="" style="shape=umlLifeline;participant=umlActor;perimeter=lifelinePerimeter;whiteSpace=wrap;html=1;container=1;collapsible=0;recursiveResize=0;verticalAlign=top;spacingTop=36;outlineConnect=0;fontSize=25;" parent="1" vertex="1">
          <mxGeometry x="40" y="4860" width="20" height="720" as="geometry" />
        </mxCell>
        <mxCell id="g7hA280cSHpAfKu-B-t--4" value="Запрос списка фильмов &lt;br&gt;и сериалов Otium &lt;br&gt;(с фильтрами и сортировкой)" style="html=1;verticalAlign=bottom;startArrow=none;startFill=0;endArrow=block;startSize=8;rounded=1;fontSize=14;entryX=0.069;entryY=-0.001;entryDx=0;entryDy=0;entryPerimeter=0;" parent="g7hA280cSHpAfKu-B-t--3" target="g7hA280cSHpAfKu-B-t--19" edge="1">
          <mxGeometry width="60" relative="1" as="geometry">
            <mxPoint x="10" y="120" as="sourcePoint" />
            <mxPoint x="70" y="120" as="targetPoint" />
          </mxGeometry>
        </mxCell>
        <mxCell id="g7hA280cSHpAfKu-B-t--5" value="Web Server" style="shape=umlLifeline;perimeter=lifelinePerimeter;whiteSpace=wrap;html=1;container=1;collapsible=0;recursiveResize=0;outlineConnect=0;fontSize=25;" parent="1" vertex="1">
          <mxGeometry x="490" y="4860" width="150" height="720" as="geometry" />
        </mxCell>
        <mxCell id="g7hA280cSHpAfKu-B-t--6" value="" style="html=1;points=[];perimeter=orthogonalPerimeter;fontFamily=Helvetica;fontSize=25;fontColor=default;align=center;strokeColor=default;fillColor=default;" parent="g7hA280cSHpAfKu-B-t--5" vertex="1">
          <mxGeometry x="70" y="160" width="10" height="340" as="geometry" />
        </mxCell>
        <mxCell id="g7hA280cSHpAfKu-B-t--44" value="" style="html=1;points=[];perimeter=orthogonalPerimeter;" parent="g7hA280cSHpAfKu-B-t--5" vertex="1">
          <mxGeometry x="75" y="430" width="10" height="40" as="geometry" />
        </mxCell>
        <mxCell id="g7hA280cSHpAfKu-B-t--45" value="обработать данные и&lt;br&gt;применить фильтры" style="edgeStyle=orthogonalEdgeStyle;html=1;align=left;spacingLeft=2;endArrow=block;rounded=0;entryX=1;entryY=0;" parent="g7hA280cSHpAfKu-B-t--5" target="g7hA280cSHpAfKu-B-t--44" edge="1">
          <mxGeometry relative="1" as="geometry">
            <mxPoint x="80" y="410" as="sourcePoint" />
            <Array as="points">
              <mxPoint x="120" y="410" />
              <mxPoint x="120" y="430" />
            </Array>
          </mxGeometry>
        </mxCell>
        <mxCell id="g7hA280cSHpAfKu-B-t--9" value="Series Server" style="shape=umlLifeline;perimeter=lifelinePerimeter;whiteSpace=wrap;html=1;container=1;collapsible=0;recursiveResize=0;outlineConnect=0;fontSize=25;" parent="1" vertex="1">
          <mxGeometry x="995" y="4860" width="160" height="720" as="geometry" />
        </mxCell>
        <mxCell id="8ls1gTeXbY_8odH4ZYZD-5" value="" style="html=1;points=[];perimeter=orthogonalPerimeter;fontFamily=Helvetica;fontSize=25;fontColor=default;align=center;strokeColor=default;fillColor=default;" vertex="1" parent="g7hA280cSHpAfKu-B-t--9">
          <mxGeometry x="75" y="320" width="10" height="50" as="geometry" />
        </mxCell>
        <mxCell id="8ls1gTeXbY_8odH4ZYZD-6" value="&lt;div style=&quot;text-align: left;&quot;&gt;&lt;font face=&quot;Inter, system-ui, -apple-system, system-ui, Segoe UI, Roboto, Oxygen, Ubuntu, Cantarell, Fira Sans, Droid Sans, Helvetica, Arial, sans-serif&quot;&gt;&lt;span style=&quot;font-size: 14px;&quot;&gt;список всех сериалов&lt;/span&gt;&lt;/font&gt;&lt;/div&gt;" style="html=1;verticalAlign=bottom;startArrow=none;endArrow=open;startSize=8;rounded=1;fontSize=25;startFill=0;endFill=0;dashed=1;entryX=1.192;entryY=0.614;entryDx=0;entryDy=0;entryPerimeter=0;exitX=-0.05;exitY=0.205;exitDx=0;exitDy=0;exitPerimeter=0;" edge="1" parent="g7hA280cSHpAfKu-B-t--9" target="g7hA280cSHpAfKu-B-t--6">
          <mxGeometry x="-0.001" relative="1" as="geometry">
            <mxPoint x="75" y="370" as="sourcePoint" />
            <mxPoint x="-170" y="370" as="targetPoint" />
            <mxPoint as="offset" />
          </mxGeometry>
        </mxCell>
        <mxCell id="g7hA280cSHpAfKu-B-t--13" value="&lt;span style=&quot;background-color: rgb(255, 255, 255); font-size: 13px;&quot;&gt;&lt;font style=&quot;font-size: 13px;&quot;&gt;&lt;span style=&quot;font-family: Inter, system-ui, -apple-system, &amp;quot;system-ui&amp;quot;, &amp;quot;Segoe UI&amp;quot;, Roboto, Oxygen, Ubuntu, Cantarell, &amp;quot;Fira Sans&amp;quot;, &amp;quot;Droid Sans&amp;quot;, Helvetica, Arial, sans-serif; text-align: left;&quot; data-testid=&quot;resolvedVariable&quot; spellcheck=&quot;false&quot; class=&quot;resolvedVariable&quot;&gt;GET {{WebServer}}&lt;/span&gt;&lt;span style=&quot;font-family: Inter, system-ui, -apple-system, &amp;quot;system-ui&amp;quot;, &amp;quot;Segoe UI&amp;quot;, Roboto, Oxygen, Ubuntu, Cantarell, &amp;quot;Fira Sans&amp;quot;, &amp;quot;Droid Sans&amp;quot;, Helvetica, Arial, sans-serif; text-align: left;&quot; data-testid=&quot;resolvedVariable&quot; spellcheck=&quot;false&quot; class=&quot;resolvedVariable&quot;&gt;/&lt;/span&gt;&lt;/font&gt;&lt;span style=&quot;font-family: Inter, system-ui, -apple-system, &amp;quot;system-ui&amp;quot;, &amp;quot;Segoe UI&amp;quot;, Roboto, Oxygen, Ubuntu, Cantarell, &amp;quot;Fira Sans&amp;quot;, &amp;quot;Droid Sans&amp;quot;, Helvetica, Arial, sans-serif; text-align: left;&quot; data-offset-key=&quot;a3p1t-1-0&quot;&gt;&lt;span style=&quot;&quot; data-text=&quot;true&quot;&gt;content/list&lt;/span&gt;&lt;/span&gt;&lt;/span&gt;" style="html=1;verticalAlign=bottom;startArrow=none;endArrow=block;startSize=8;rounded=1;fontSize=25;entryX=-0.044;entryY=0.001;entryDx=0;entryDy=0;entryPerimeter=0;startFill=0;" parent="1" source="g7hA280cSHpAfKu-B-t--19" target="g7hA280cSHpAfKu-B-t--6" edge="1">
          <mxGeometry x="-0.0014" relative="1" as="geometry">
            <mxPoint x="245" y="4940" as="sourcePoint" />
            <mxPoint as="offset" />
          </mxGeometry>
        </mxCell>
        <mxCell id="g7hA280cSHpAfKu-B-t--18" value="UI: Otium" style="shape=umlLifeline;perimeter=lifelinePerimeter;whiteSpace=wrap;html=1;container=1;collapsible=0;recursiveResize=0;outlineConnect=0;fontSize=25;" parent="1" vertex="1">
          <mxGeometry x="235" y="4860" width="150" height="720" as="geometry" />
        </mxCell>
        <mxCell id="g7hA280cSHpAfKu-B-t--19" value="" style="html=1;points=[];perimeter=orthogonalPerimeter;fontFamily=Helvetica;fontSize=25;fontColor=default;align=center;strokeColor=default;fillColor=default;" parent="g7hA280cSHpAfKu-B-t--18" vertex="1">
          <mxGeometry x="70" y="120" width="10" height="540" as="geometry" />
        </mxCell>
        <mxCell id="8ls1gTeXbY_8odH4ZYZD-10" value="список фильмов и сериалов &#xa;(с учетом фильтров и сортировки)" style="html=1;verticalAlign=bottom;startArrow=none;endArrow=open;startSize=8;rounded=1;startFill=0;endFill=0;dashed=1;entryX=1.017;entryY=0.307;entryDx=0;entryDy=0;entryPerimeter=0;" edge="1" parent="g7hA280cSHpAfKu-B-t--18">
          <mxGeometry relative="1" as="geometry">
            <mxPoint x="65" y="540" as="sourcePoint" />
            <mxPoint x="-185" y="540" as="targetPoint" />
            <mxPoint as="offset" />
          </mxGeometry>
        </mxCell>
        <mxCell id="g7hA280cSHpAfKu-B-t--42" value="Films Server" style="shape=umlLifeline;perimeter=lifelinePerimeter;whiteSpace=wrap;html=1;container=1;collapsible=0;recursiveResize=0;outlineConnect=0;fontSize=25;" parent="1" vertex="1">
          <mxGeometry x="740" y="4860" width="160" height="720" as="geometry" />
        </mxCell>
        <mxCell id="8ls1gTeXbY_8odH4ZYZD-2" value="" style="html=1;points=[];perimeter=orthogonalPerimeter;fontFamily=Helvetica;fontSize=25;fontColor=default;align=center;strokeColor=default;fillColor=default;" vertex="1" parent="g7hA280cSHpAfKu-B-t--42">
          <mxGeometry x="75" y="230" width="10" height="50" as="geometry" />
        </mxCell>
        <mxCell id="8ls1gTeXbY_8odH4ZYZD-1" value="&lt;span style=&quot;background-color: rgb(255, 255, 255); font-size: 14px;&quot;&gt;&lt;font style=&quot;font-size: 14px;&quot;&gt;&lt;span style=&quot;font-family: Inter, system-ui, -apple-system, &amp;quot;system-ui&amp;quot;, &amp;quot;Segoe UI&amp;quot;, Roboto, Oxygen, Ubuntu, Cantarell, &amp;quot;Fira Sans&amp;quot;, &amp;quot;Droid Sans&amp;quot;, Helvetica, Arial, sans-serif; text-align: left;&quot; data-testid=&quot;resolvedVariable&quot; spellcheck=&quot;false&quot; class=&quot;resolvedVariable&quot;&gt;GET {{FilmsServer}}&lt;/span&gt;&lt;span style=&quot;font-family: Inter, system-ui, -apple-system, &amp;quot;system-ui&amp;quot;, &amp;quot;Segoe UI&amp;quot;, Roboto, Oxygen, Ubuntu, Cantarell, &amp;quot;Fira Sans&amp;quot;, &amp;quot;Droid Sans&amp;quot;, Helvetica, Arial, sans-serif; text-align: left;&quot; data-testid=&quot;resolvedVariable&quot; spellcheck=&quot;false&quot; class=&quot;resolvedVariable&quot;&gt;/films&lt;/span&gt;&lt;/font&gt;&lt;span style=&quot;font-family: Inter, system-ui, -apple-system, &amp;quot;system-ui&amp;quot;, &amp;quot;Segoe UI&amp;quot;, Roboto, Oxygen, Ubuntu, Cantarell, &amp;quot;Fira Sans&amp;quot;, &amp;quot;Droid Sans&amp;quot;, Helvetica, Arial, sans-serif; text-align: left;&quot; data-offset-key=&quot;a3p1t-1-0&quot;&gt;&lt;span style=&quot;&quot; data-text=&quot;true&quot;&gt;/list&lt;/span&gt;&lt;/span&gt;&lt;/span&gt;" style="html=1;verticalAlign=bottom;startArrow=none;endArrow=block;startSize=8;rounded=1;fontSize=25;entryX=-0.044;entryY=0.001;entryDx=0;entryDy=0;entryPerimeter=0;startFill=0;" edge="1" parent="g7hA280cSHpAfKu-B-t--42">
          <mxGeometry x="-0.001" relative="1" as="geometry">
            <mxPoint x="-170" y="230" as="sourcePoint" />
            <mxPoint x="75" y="230" as="targetPoint" />
            <mxPoint as="offset" />
          </mxGeometry>
        </mxCell>
        <mxCell id="8ls1gTeXbY_8odH4ZYZD-4" value="&lt;span style=&quot;background-color: rgb(255, 255, 255); font-size: 14px;&quot;&gt;&lt;font style=&quot;font-size: 14px;&quot;&gt;&lt;span style=&quot;font-family: Inter, system-ui, -apple-system, &amp;quot;system-ui&amp;quot;, &amp;quot;Segoe UI&amp;quot;, Roboto, Oxygen, Ubuntu, Cantarell, &amp;quot;Fira Sans&amp;quot;, &amp;quot;Droid Sans&amp;quot;, Helvetica, Arial, sans-serif; text-align: left;&quot; data-testid=&quot;resolvedVariable&quot; spellcheck=&quot;false&quot; class=&quot;resolvedVariable&quot;&gt;GET {{SeriesServer}}&lt;/span&gt;&lt;span style=&quot;font-family: Inter, system-ui, -apple-system, &amp;quot;system-ui&amp;quot;, &amp;quot;Segoe UI&amp;quot;, Roboto, Oxygen, Ubuntu, Cantarell, &amp;quot;Fira Sans&amp;quot;, &amp;quot;Droid Sans&amp;quot;, Helvetica, Arial, sans-serif; text-align: left;&quot; data-testid=&quot;resolvedVariable&quot; spellcheck=&quot;false&quot; class=&quot;resolvedVariable&quot;&gt;/series&lt;/span&gt;&lt;/font&gt;&lt;span style=&quot;font-family: Inter, system-ui, -apple-system, &amp;quot;system-ui&amp;quot;, &amp;quot;Segoe UI&amp;quot;, Roboto, Oxygen, Ubuntu, Cantarell, &amp;quot;Fira Sans&amp;quot;, &amp;quot;Droid Sans&amp;quot;, Helvetica, Arial, sans-serif; text-align: left;&quot; data-offset-key=&quot;a3p1t-1-0&quot;&gt;&lt;span style=&quot;&quot; data-text=&quot;true&quot;&gt;/list&lt;/span&gt;&lt;/span&gt;&lt;/span&gt;" style="html=1;verticalAlign=bottom;startArrow=none;endArrow=block;startSize=8;rounded=1;fontSize=25;entryX=-0.044;entryY=0.001;entryDx=0;entryDy=0;entryPerimeter=0;startFill=0;exitX=0.933;exitY=0.468;exitDx=0;exitDy=0;exitPerimeter=0;" edge="1" parent="g7hA280cSHpAfKu-B-t--42" source="g7hA280cSHpAfKu-B-t--6">
          <mxGeometry x="-0.001" relative="1" as="geometry">
            <mxPoint x="85" y="319.86999999999995" as="sourcePoint" />
            <mxPoint x="330" y="319.86999999999995" as="targetPoint" />
            <mxPoint as="offset" />
          </mxGeometry>
        </mxCell>
        <mxCell id="8ls1gTeXbY_8odH4ZYZD-3" value="&lt;div style=&quot;text-align: left;&quot;&gt;&lt;font face=&quot;Inter, system-ui, -apple-system, system-ui, Segoe UI, Roboto, Oxygen, Ubuntu, Cantarell, Fira Sans, Droid Sans, Helvetica, Arial, sans-serif&quot;&gt;&lt;span style=&quot;font-size: 14px;&quot;&gt;список всех фильмов&lt;/span&gt;&lt;/font&gt;&lt;/div&gt;" style="html=1;verticalAlign=bottom;startArrow=none;endArrow=open;startSize=8;rounded=1;fontSize=25;startFill=0;endFill=0;dashed=1;entryX=1.067;entryY=0.35;entryDx=0;entryDy=0;entryPerimeter=0;exitX=0.186;exitY=0.996;exitDx=0;exitDy=0;exitPerimeter=0;" edge="1" parent="1" source="8ls1gTeXbY_8odH4ZYZD-2" target="g7hA280cSHpAfKu-B-t--6">
          <mxGeometry x="-0.001" relative="1" as="geometry">
            <mxPoint x="800" y="5140" as="sourcePoint" />
            <mxPoint x="570" y="5121" as="targetPoint" />
            <mxPoint as="offset" />
          </mxGeometry>
        </mxCell>
        <mxCell id="8ls1gTeXbY_8odH4ZYZD-9" value="список фильмов и сериалов &#xa;(с учетом фильтров и сортировки)" style="html=1;verticalAlign=bottom;startArrow=none;endArrow=open;startSize=8;rounded=1;startFill=0;endFill=0;dashed=1;exitX=0.502;exitY=0.693;exitDx=0;exitDy=0;exitPerimeter=0;" edge="1" parent="1" source="g7hA280cSHpAfKu-B-t--5">
          <mxGeometry x="-0.001" relative="1" as="geometry">
            <mxPoint x="560" y="5490" as="sourcePoint" />
            <mxPoint x="320" y="5359" as="targetPoint" />
            <mxPoint as="offset" />
          </mxGeometry>
        </mxCell>
      </root>
    </mxGraphModel>
  </diagram>
</mxfile>
